<svg xmlns="http://www.w3.org/2000/svg" version="1.1" xmlns:xlink="http://www.w3.org/1999/xlink" xmlns:svgjs="http://svgjs.dev/svgjs" width="397.08" height="311.56"><svg id="SvgjsSvg1080" xmlns="http://www.w3.org/2000/svg" viewBox="0 0 397.08 311.56">
  <defs>
    <style>
      .cls-1 {
        stroke-linecap: round;
      }

      .cls-1, .cls-2, .cls-3 {
        stroke: #ccb389;
        stroke-miterlimit: 10;
        stroke-width: 5px;
      }

      .cls-1, .cls-3 {
        fill: none;
      }

      .cls-2 {
        fill: #da9c14;
      }
    </style>
  </defs>
  <g id="SvgjsG1079" data-name="Camada_2">
    <g>
      <path class="cls-3" d="M362.14,207.83c0,86.03-77.7,101.23-170.02,101.23s-164.32-15.2-164.32-101.23S99.8,5.73,192.12,5.73s170.02,116.07,170.02,202.1Z"></path>
      <path class="cls-1" d="M272.68,201.77s43.49-10.69,121.9-11.76"></path>
      <path class="cls-1" d="M280.16,220.66s61.31-1.78,95.88,13.19"></path>
      <path class="cls-1" d="M276.96,233.85s45.27,6.06,109.78,44.2"></path>
      <path class="cls-1" d="M139.01,195.89s-104.08-13.01-134.73,8.02"></path>
      <path class="cls-1" d="M114.06,208.9s-38.85-.36-111.56,29.23"></path>
      <path class="cls-1" d="M114.06,225.29s-80.55,32.08-89.82,42.42"></path>
      <path class="cls-1" d="M170.38,225.29s22.46,2.85,24.59-35.29c0,0,0,36,24.95,35.29"></path>
      <path class="cls-1" d="M163.84,145.86c0,6.15-7.42,11.14-16.57,11.14s-16.57-4.99-16.57-11.14"></path>
      <path class="cls-1" d="M251.6,145.86c0,6.15-7.42,11.14-16.57,11.14s-16.57-4.99-16.57-11.14"></path>
      <path class="cls-3" d="M42.77,131.71c-16.17-32.52-24.05-108.8-1.42-125.98,19.25-14.61,67.37,24.89,72.71,28.81"></path>
      <path class="cls-2" d="M90.44,56.25c4.22-4.39-30.27-34.69-38.95-25.33-10.21,11.01-9.34,37.4,6.82,69.92,0,0,12.29-23.99,32.13-44.6Z"></path>
      <path class="cls-2" d="M300.48,60.53c-4.22-4.39,30.27-34.69,38.95-25.33,10.21,11.01,9.34,37.4-6.82,69.92,0,0-12.29-23.99-32.13-44.6Z"></path>
      <path class="cls-3" d="M347.27,136.64c16.17-32.52,25.02-110.5,2.4-127.69-19.25-14.61-67.37,24.89-72.71,28.81"></path>
      <path class="cls-2" d="M194.98,190.01s-9.27-5.32-8.73-12.89c0,0,3.6-3.39,17.5-.89,0,0,3.62,7.51-8.77,13.78Z"></path>
    </g>
  </g>
</svg><style>@media (prefers-color-scheme: light) { :root { filter: none; } }
@media (prefers-color-scheme: dark) { :root { filter: none; } }
</style></svg>